<?xml version="1.0" encoding="UTF-8"?>
<svg id="Layer_1" xmlns="http://www.w3.org/2000/svg" viewBox="0 0 164.56 166.76" role="img" aria-labelledby="title">
  <title id="title">Spitty</title>
  <defs><style>.cls-1{fill:#f0f;}</style></defs>
  <rect x="2.28" y="3.38" width="160" height="160"/>
  <path class="cls-1" d="M0,110.66l8.61-2.97c.19,7.7.57,13.57,1.14,17.6.93,6.53,2.26,9.79,3.99,9.79,1.29,0,2.29-1.67,2.99-5s1.05-7.2,1.05-11.6-.33-7.92-1-11.22-2.21-6.42-4.63-9.35c-3.97-4.91-6.8-11.44-8.49-19.58-1.7-8.14-2.56-18.52-2.56-31.13,0-8.29.44-16.11,1.31-23.48.87-7.37,2.18-13.16,3.93-17.38S10.49,0,13.54,0c3.74,0,6.59,3.83,8.56,11.49s3.13,19.85,3.51,36.57l-8.53,2.75c-.23-7.26-.7-12.54-1.43-15.84s-1.73-4.95-3.01-4.95c-1.05,0-1.84,1.23-2.38,3.68s-.8,5.44-.8,8.96c0,2.57.22,4.88.66,6.93.43,2.13,1.44,4.11,3.04,5.94,3.95,4.69,6.79,9.44,8.5,14.24s2.96,10.76,3.74,17.87,1.17,15.07,1.17,23.87c0,10.34-.52,19.87-1.56,28.6s-2.49,15.34-4.35,19.85c-1.86,4.51-4.21,6.76-7.05,6.76-4.98,0-8.43-5.28-10.35-15.84S.25,126.94,0,110.66Z"/>
  <path class="cls-1" d="M31.08,2.75h15.04c3.28,0,5.73,4.29,7.36,12.87s2.45,20.79,2.45,36.63-.89,29-2.67,38.17-4.49,13.75-8.14,13.75h-4.95v59.84h-9.09V2.75ZM40.17,71.5h2.22c1.74,0,2.97-1.67,3.68-5s1.06-7.61,1.06-12.81-.31-9.35-.92-12.87-1.76-5.28-3.46-5.28h-2.58v35.97Z"/>
  <path class="cls-1" d="M61.02,2.75h9.07v161.26h-9.07V2.75Z"/>
  <path class="cls-1" d="M74.52,2.75h27.5v39.82h-9.23v121.44h-9.05V42.57h-9.23V2.75Z"/>
  <path class="cls-1" d="M102.02,2.75h29.54v39.82h-9.23v121.44h-9.05V42.57h-11.27V2.75Z"/>
  <path class="cls-1" d="M132.7,2.75h10.05l5.9,54.4,5.91-54.4h10l-11.38,93.72v67.54h-9.07v-67.54L132.7,2.75Z"/>
</svg>
